<svg xmlns="http://www.w3.org/2000/svg" version="1.1" xmlns:xlink="http://www.w3.org/1999/xlink" xmlns:svgjs="http://svgjs.com/svgjs" width="1920" height="1080" preserveAspectRatio="none" viewBox="0 0 1920 1080"><g mask="url(&quot;#SvgjsMask1516&quot;)" fill="none"><rect width="1920" height="1080" x="0" y="0" fill="url(#SvgjsLinearGradient1517)"></rect><path d="M1920 0L1699.79 0L1920 80.34z" fill="rgba(255, 255, 255, .1)"></path><path d="M1699.79 0L1920 80.34L1920 398.97L1499.1399999999999 0z" fill="rgba(255, 255, 255, .075)"></path><path d="M1499.1399999999999 0L1920 398.97L1920 609.84L1492.61 0z" fill="rgba(255, 255, 255, .05)"></path><path d="M1492.6100000000001 0L1920 609.84L1920 742.3900000000001L537.6800000000002 0z" fill="rgba(255, 255, 255, .025)"></path><path d="M0 1080L638.11 1080L0 680.52z" fill="rgba(0, 0, 0, .1)"></path><path d="M0 680.52L638.11 1080L1132.0900000000001 1080L0 516.7z" fill="rgba(0, 0, 0, .075)"></path><path d="M0 516.7L1132.0900000000001 1080L1526.8000000000002 1080L0 469.80000000000007z" fill="rgba(0, 0, 0, .05)"></path><path d="M0 469.80000000000007L1526.8000000000002 1080L1559.89 1080L0 420.56000000000006z" fill="rgba(0, 0, 0, .025)"></path></g><defs><mask id="SvgjsMask1516"><rect width="1920" height="1080" fill="#ffffff"></rect></mask><linearGradient x1="10.94%" y1="-19.44%" x2="89.06%" y2="119.44%" gradientUnits="userSpaceOnUse" id="SvgjsLinearGradient1517"><stop stop-color="rgba(68, 68, 68, 1)" offset="0"></stop><stop stop-color="rgba(24, 24, 24, 1)" offset="1"></stop></linearGradient></defs></svg>